<?xml version="1.0" encoding="UTF-8" standalone="no"?>
<!-- Created with Inkscape (http://www.inkscape.org/) -->

<svg
   version="1.1"
   id="svg1"
   width="299.60477"
   height="62.123188"
   viewBox="0 0 299.60477 62.123187"
   xmlns="http://www.w3.org/2000/svg"
   xmlns:svg="http://www.w3.org/2000/svg">
  <defs
     id="defs1">
    <clipPath
       clipPathUnits="userSpaceOnUse"
       id="clipPath51">
      <path
         d="M 56.693,142.723 H 1984.252 V 479.482 H 56.693 Z"
         transform="translate(-340.68553,-284.187)"
         id="path51" />
    </clipPath>
    <clipPath
       clipPathUnits="userSpaceOnUse"
       id="clipPath53">
      <path
         d="M 56.693,142.723 H 1984.252 V 479.482 H 56.693 Z"
         transform="translate(-209.82321,-284.187)"
         id="path53" />
    </clipPath>
    <clipPath
       clipPathUnits="userSpaceOnUse"
       id="clipPath55">
      <path
         d="M 56.693,142.723 H 1984.252 V 479.482 H 56.693 Z"
         transform="translate(-320.04943,-475.63681)"
         id="path55" />
    </clipPath>
    <clipPath
       clipPathUnits="userSpaceOnUse"
       id="clipPath57">
      <path
         d="M 56.693,142.723 H 1984.252 V 479.482 H 56.693 Z"
         transform="translate(-637.92179,-427.04701)"
         id="path57" />
    </clipPath>
    <clipPath
       clipPathUnits="userSpaceOnUse"
       id="clipPath59">
      <path
         d="M 56.693,142.723 H 1984.252 V 479.482 H 56.693 Z"
         transform="translate(-714.05684,-403.93551)"
         id="path59" />
    </clipPath>
    <clipPath
       clipPathUnits="userSpaceOnUse"
       id="clipPath61">
      <path
         d="M 56.693,142.723 H 1984.252 V 479.482 H 56.693 Z"
         transform="translate(-856.90342,-411.15691)"
         id="path61" />
    </clipPath>
    <clipPath
       clipPathUnits="userSpaceOnUse"
       id="clipPath63">
      <path
         d="M 56.693,142.723 H 1984.252 V 479.482 H 56.693 Z"
         transform="translate(-956.9247,-381.08441)"
         id="path63" />
    </clipPath>
    <clipPath
       clipPathUnits="userSpaceOnUse"
       id="clipPath65">
      <path
         d="M 56.693,142.723 H 1984.252 V 479.482 H 56.693 Z"
         transform="translate(-987.5073,-334.99291)"
         id="path65" />
    </clipPath>
    <clipPath
       clipPathUnits="userSpaceOnUse"
       id="clipPath67">
      <path
         d="M 56.693,142.723 H 1984.252 V 479.482 H 56.693 Z"
         transform="translate(-1078.4711,-347.99361)"
         id="path67" />
    </clipPath>
    <clipPath
       clipPathUnits="userSpaceOnUse"
       id="clipPath69">
      <path
         d="M 56.693,142.723 H 1984.252 V 479.482 H 56.693 Z"
         transform="translate(-1194.765,-403.01641)"
         id="path69" />
    </clipPath>
    <clipPath
       clipPathUnits="userSpaceOnUse"
       id="clipPath71">
      <path
         d="M 56.693,142.723 H 1984.252 V 479.482 H 56.693 Z"
         transform="translate(-1256.3225,-403.93551)"
         id="path71" />
    </clipPath>
    <clipPath
       clipPathUnits="userSpaceOnUse"
       id="clipPath73">
      <path
         d="M 56.693,142.723 H 1984.252 V 479.482 H 56.693 Z"
         transform="translate(-1385.7773,-360.33771)"
         id="path73" />
    </clipPath>
    <clipPath
       clipPathUnits="userSpaceOnUse"
       id="clipPath75">
      <path
         d="M 56.693,142.723 H 1984.252 V 479.482 H 56.693 Z"
         transform="translate(-1473.7457,-417.46071)"
         id="path75" />
    </clipPath>
    <clipPath
       clipPathUnits="userSpaceOnUse"
       id="clipPath77">
      <path
         d="M 56.693,142.723 H 1984.252 V 479.482 H 56.693 Z"
         transform="translate(-1521.6383,-366.64001)"
         id="path77" />
    </clipPath>
    <clipPath
       clipPathUnits="userSpaceOnUse"
       id="clipPath79">
      <path
         d="M 56.693,142.723 H 1984.252 V 479.482 H 56.693 Z"
         transform="translate(-1614.0164,-347.99361)"
         id="path79" />
    </clipPath>
    <clipPath
       clipPathUnits="userSpaceOnUse"
       id="clipPath81">
      <path
         d="M 56.693,142.723 H 1984.252 V 479.482 H 56.693 Z"
         transform="translate(-666.80812,-266.71691)"
         id="path81" />
    </clipPath>
    <clipPath
       clipPathUnits="userSpaceOnUse"
       id="clipPath83">
      <path
         d="M 56.693,142.723 H 1984.252 V 479.482 H 56.693 Z"
         transform="translate(-737.15954,-214.79081)"
         id="path83" />
    </clipPath>
    <clipPath
       clipPathUnits="userSpaceOnUse"
       id="clipPath85">
      <path
         d="M 56.693,142.723 H 1984.252 V 479.482 H 56.693 Z"
         transform="translate(-821.0109,-227.20851)"
         id="path85" />
    </clipPath>
    <clipPath
       clipPathUnits="userSpaceOnUse"
       id="clipPath87">
      <path
         d="M 56.693,142.723 H 1984.252 V 479.482 H 56.693 Z"
         transform="translate(-864.73312,-213.0033)"
         id="path87" />
    </clipPath>
    <clipPath
       clipPathUnits="userSpaceOnUse"
       id="clipPath89">
      <path
         d="M 56.693,142.723 H 1984.252 V 479.482 H 56.693 Z"
         transform="translate(-956.2956,-275.4282)"
         id="path89" />
    </clipPath>
    <clipPath
       clipPathUnits="userSpaceOnUse"
       id="clipPath91">
      <path
         d="M 56.693,142.723 H 1984.252 V 479.482 H 56.693 Z"
         transform="translate(-1022.9475,-203.57351)"
         id="path91" />
    </clipPath>
    <clipPath
       clipPathUnits="userSpaceOnUse"
       id="clipPath93">
      <path
         d="M 56.693,142.723 H 1984.252 V 479.482 H 56.693 Z"
         transform="translate(-1179.8057,-253.06041)"
         id="path93" />
    </clipPath>
  </defs>
  <g
     id="g47"
     transform="matrix(0.1383553,0,0,0.1383553,-218.04518,-21.360861)"
     style="fill:#ffffff">
    <path
       id="path50"
       d="m 0,0 c -25.788,-23.522 -48.056,-43.833 -48.056,-73.068 v -68.396 c 22.199,27.117 52.267,45.181 81.841,62.919 40.023,24 77.827,46.669 100.194,91.407 18.915,37.823 19.159,73.38 0.733,105.682 -21.197,37.154 -63.409,63.536 -92.366,76.751 17.681,-18.99 26.84,-43.599 26.84,-72.96 C 69.186,63.095 32.429,29.575 0,0"
       style="fill:#ffffff;fill-opacity:1;fill-rule:nonzero;stroke:none"
       transform="matrix(1.3333333,0,0,-1.3333333,1948.2567,414.78467)"
       clip-path="url(#clipPath51)" />
    <path
       id="path52"
       d="m 0,0 c -32.427,29.575 -69.182,63.095 -69.182,122.335 0,29.361 9.161,53.97 26.839,72.955 -28.968,-13.21 -71.169,-39.597 -92.362,-76.747 -18.425,-32.301 -18.185,-67.858 0.727,-105.681 22.365,-44.738 60.168,-67.407 100.194,-91.407 29.574,-17.738 59.644,-35.802 81.851,-62.914 v 68.391 C 48.067,-43.833 25.786,-23.519 0,0"
       style="fill:#ffffff;fill-opacity:1;fill-rule:nonzero;stroke:none"
       transform="matrix(1.3333333,0,0,-1.3333333,1773.7736,414.78467)"
       clip-path="url(#clipPath53)" />
    <path
       id="path54"
       d="M 0,0 C -31.91,0 -43.918,-24.163 -44.795,-24.152 -45.671,-24.163 -57.679,0 -89.589,0 c -34.46,0 -55.08,-36.097 -55.08,-69.114 0,-43.902 28.108,-69.535 57.854,-96.672 15.206,-13.868 30.679,-27.995 42.02,-44.632 11.342,16.637 26.815,30.764 42.022,44.632 29.746,27.137 57.853,52.77 57.853,96.672 C 55.08,-36.097 34.46,0 0,0"
       style="fill:#ffffff;fill-opacity:1;fill-rule:nonzero;stroke:none"
       transform="matrix(1.3333333,0,0,-1.3333333,1920.7419,159.51827)"
       clip-path="url(#clipPath55)" />
    <path
       id="path56"
       d="M 0,0 C 23.9,0 37.687,-11.951 37.687,-32.961 37.687,-55.286 23.9,-68.154 0,-68.154 h -12.739 v -23.9 H -43.203 V 0 Z m -12.739,-45.041 v 0 h 11.164 c 6.565,0 10.373,4.07 10.373,11.161 0,6.829 -3.808,10.768 -10.373,10.768 h -11.164 z"
       style="fill:#ffffff;fill-opacity:1;fill-rule:nonzero;stroke:none"
       transform="matrix(1.3333333,0,0,-1.3333333,2344.5717,224.30467)"
       clip-path="url(#clipPath57)" />
    <path
       id="path58"
       d="M 0,0 V -11.293 H 43.073 V -34.406 H 0 v -11.426 h 48.588 v -23.11 H -30.465 V 23.112 H 47.406 V 0 Z"
       style="fill:#ffffff;fill-opacity:1;fill-rule:nonzero;stroke:none"
       transform="matrix(1.3333333,0,0,-1.3333333,2446.0851,255.12)"
       clip-path="url(#clipPath59)" />
    <path
       id="path60"
       d="m 0,0 -17.596,-20.88 c -5.515,7.486 -13.79,12.346 -20.88,12.346 -11.032,0 -19.042,-8.799 -19.042,-21.012 0,-12.344 8.01,-21.273 19.042,-21.273 6.566,0 14.839,4.07 20.88,10.505 L 0,-59.094 c -10.242,-11.16 -25.87,-18.384 -40.052,-18.384 -28.232,0 -48.718,20.093 -48.718,47.538 0,27.05 21.01,46.748 49.902,46.748 C -24.819,16.808 -9.453,10.244 0,0 m -47.668,45.042 v 0 l 7.877,-11.817 7.881,11.817 h 21.668 L -27.708,21.667 h -24.161 l -17.466,23.375 z"
       style="fill:#ffffff;fill-opacity:1;fill-rule:nonzero;stroke:none"
       transform="matrix(1.3333333,0,0,-1.3333333,2636.5472,245.49147)"
       clip-path="url(#clipPath61)" />
    <path
       id="path62"
       d="m 0,0 c 0,-27.313 -21.27,-47.405 -50.556,-47.405 -29.283,0 -50.557,19.959 -50.557,47.405 0,27.315 21.274,46.881 50.557,46.881 C -21.27,46.881 0,27.183 0,0 m -69.862,-0.13 v 0 c 0,-12.607 9.193,-21.93 19.7,-21.93 10.507,0 18.91,9.323 18.91,21.93 0,12.606 -8.403,21.668 -18.91,21.668 -10.639,0 -19.7,-9.062 -19.7,-21.668"
       style="fill:#ffffff;fill-opacity:1;fill-rule:nonzero;stroke:none"
       transform="matrix(1.3333333,0,0,-1.3333333,2769.9089,285.58813)"
       clip-path="url(#clipPath63)" />
    <path
       id="path64"
       d="M 0,0 -34.93,92.054 H -2.366 L 16.677,31.647 35.587,92.054 H 66.711 L 31.516,0 Z"
       style="fill:#ffffff;fill-opacity:1;fill-rule:nonzero;stroke:none"
       transform="matrix(1.3333333,0,0,-1.3333333,2810.6857,347.04347)"
       clip-path="url(#clipPath65)" />
    <path
       id="path66"
       d="M 0,0 -4.732,-13.001 H -35.984 L 2.888,79.053 h 31.25 L 71.564,-13.001 H 39.132 L 34.535,0 Z m 17.595,48.718 v 0 L 7.875,21.797 h 19.176 z"
       style="fill:#ffffff;fill-opacity:1;fill-rule:nonzero;stroke:none"
       transform="matrix(1.3333333,0,0,-1.3333333,2931.9708,329.7092)"
       clip-path="url(#clipPath67)" />
    <path
       id="path68"
       d="M 0,0 V -68.023 H -30.471 V 0 H -56.6 V 24.031 H 26.262 V 0 Z"
       style="fill:#ffffff;fill-opacity:1;fill-rule:nonzero;stroke:none"
       transform="matrix(1.3333333,0,0,-1.3333333,3087.0293,256.34547)"
       clip-path="url(#clipPath69)" />
    <path
       id="path70"
       d="M 0,0 V -11.293 H 43.072 V -34.406 H 0 v -11.426 h 48.589 v -23.11 H -30.466 V 23.112 H 47.408 V 0 Z"
       style="fill:#ffffff;fill-opacity:1;fill-rule:nonzero;stroke:none"
       transform="matrix(1.3333333,0,0,-1.3333333,3169.106,255.12)"
       clip-path="url(#clipPath71)" />
    <path
       id="path72"
       d="M 0,0 V -25.345 H -68.813 V 66.709 H -38.35 V 0 Z"
       style="fill:#ffffff;fill-opacity:1;fill-rule:nonzero;stroke:none"
       transform="matrix(1.3333333,0,0,-1.3333333,3341.7123,313.2504)"
       clip-path="url(#clipPath73)" />
    <path
       id="path74"
       d="m 0,0 -11.028,-23.113 c -9.325,5.124 -23.64,10.769 -31.651,10.769 -3.412,0 -5.642,-1.051 -5.642,-3.808 0,-11.556 47.668,-4.335 47.668,-37.689 0,-20.485 -17.99,-29.546 -38.739,-29.546 -16.024,0 -33.882,5.383 -46.094,14.707 l 11.296,22.85 c 9.453,-7.879 25.736,-14.314 35.058,-14.314 4.464,0 7.356,1.444 7.356,4.727 0,11.95 -47.668,4.072 -47.668,36.376 0,18.384 15.495,29.94 39.392,29.94 C -25.473,10.899 -10.375,6.568 0,0"
       style="fill:#ffffff;fill-opacity:1;fill-rule:nonzero;stroke:none"
       transform="matrix(1.3333333,0,0,-1.3333333,3459.0035,237.0864)"
       clip-path="url(#clipPath75)" />
    <path
       id="path76"
       d="M 0,0 -8.933,-9.98 V -31.647 H -39.399 V 60.407 H -8.933 V 28.496 L 18.515,60.407 H 53.573 L 20.749,23.375 55.547,-31.647 H 19.171 Z"
       style="fill:#ffffff;fill-opacity:1;fill-rule:nonzero;stroke:none"
       transform="matrix(1.3333333,0,0,-1.3333333,3522.8603,304.84733)"
       clip-path="url(#clipPath77)" />
    <path
       id="path78"
       d="M 0,0 -4.729,-13.001 H -35.984 L 2.887,79.053 H 34.142 L 71.567,-13.001 H 39.132 L 34.539,0 Z m 4.068,84.83 v 0 l 14.053,24.822 24.95,-7.88 L 25.08,84.83 Z m 13.53,-36.112 v 0 L 7.875,21.797 h 19.176 z"
       style="fill:#ffffff;fill-opacity:1;fill-rule:nonzero;stroke:none"
       transform="matrix(1.3333333,0,0,-1.3333333,3646.0312,329.7092)"
       clip-path="url(#clipPath79)" />
    <path
       id="path80"
       d="m 0,0 -10.024,-21.009 c -8.475,4.654 -21.486,9.786 -28.767,9.786 -3.102,0 -5.133,-0.955 -5.133,-3.46 0,-10.503 43.327,-3.941 43.327,-34.26 0,-18.62 -16.351,-26.853 -35.209,-26.853 -14.562,0 -30.795,4.893 -41.897,13.371 l 10.267,20.765 c 8.595,-7.159 23.394,-13.01 31.868,-13.01 4.058,0 6.683,1.314 6.683,4.297 0,10.865 -43.326,3.7 -43.326,33.063 0,16.711 14.085,27.214 35.808,27.214 C -23.156,9.904 -9.428,5.968 0,0"
       style="fill:#ffffff;fill-opacity:1;fill-rule:nonzero;stroke:none"
       transform="matrix(1.3333333,0,0,-1.3333333,2383.0868,438.07813)"
       clip-path="url(#clipPath81)" />
    <path
       id="path82"
       d="m 0,0 v -23.034 h -62.543 v 83.672 h 27.689 V 0 Z"
       style="fill:#ffffff;fill-opacity:1;fill-rule:nonzero;stroke:none"
       transform="matrix(1.3333333,0,0,-1.3333333,2476.8887,507.31293)"
       clip-path="url(#clipPath83)" />
    <path
       id="path84"
       d="m 0,0 c 0,-22.202 -15.635,-36.644 -39.866,-36.644 -24.347,0 -40.461,14.442 -40.461,36.644 v 48.219 h 27.69 V 0 c 0,-8.238 5.969,-13.608 12.89,-13.608 6.804,0 12.055,5.25 12.055,13.608 V 48.219 H 0 Z"
       style="fill:#ffffff;fill-opacity:1;fill-rule:nonzero;stroke:none"
       transform="matrix(1.3333333,0,0,-1.3333333,2588.6905,490.756)"
       clip-path="url(#clipPath85)" />
    <path
       id="path86"
       d="M 0,0 H 39.865 V -21.247 H -36.882 V -3.941 L 2.149,41.178 h -37.6 v 21.247 h 74.48 V 45.118 Z m -3.94,88.923 v 0 L 3.222,78.176 10.385,88.923 H 30.078 L 14.201,67.678 H -7.76 l -15.875,21.245 z"
       style="fill:#ffffff;fill-opacity:1;fill-rule:nonzero;stroke:none"
       transform="matrix(1.3333333,0,0,-1.3333333,2646.9868,509.69627)"
       clip-path="url(#clipPath87)" />
    <path
       id="path88"
       d="m 0,0 c 20.173,0 33.182,-8.354 33.182,-21.13 0,-8.233 -5.49,-15.278 -14.085,-17.901 10.029,-2.268 16.591,-10.622 16.591,-21.125 0,-14.322 -13.25,-23.515 -33.66,-23.515 h -44.4 V 0 Z m -14.8,-32.227 v 0 h 13.249 c 3.82,0 6.326,2.385 6.326,6.084 0,3.583 -2.506,5.852 -6.326,5.852 H -14.8 Z m 0,-31.154 v 0 h 13.249 c 5.133,0 8.475,2.626 8.475,6.684 0,3.697 -3.342,6.087 -8.475,6.087 H -14.8 Z"
       style="fill:#ffffff;fill-opacity:1;fill-rule:nonzero;stroke:none"
       transform="matrix(1.3333333,0,0,-1.3333333,2769.0701,426.46307)"
       clip-path="url(#clipPath89)" />
    <path
       id="path90"
       d="M 0,0 -4.297,-11.816 H -32.7 L 2.627,71.855 H 31.033 L 65.051,-11.816 H 35.567 L 31.395,0 Z m 15.993,44.282 v 0 L 7.164,19.812 h 17.423 z"
       style="fill:#ffffff;fill-opacity:1;fill-rule:nonzero;stroke:none"
       transform="matrix(1.3333333,0,0,-1.3333333,2857.9393,522.26933)"
       clip-path="url(#clipPath91)" />
    <path
       id="path92"
       d="m 0,0 h -51.762 v -5.84 h 22.651 v -56.451 h 6.371 V -5.84 H 0 Z m 47.425,-62.291 h 7.698 l -20.881,26.279 c 8.849,1.947 14.599,8.317 14.599,17.519 C 48.841,-7.875 40.878,0 28.579,0 H 9.555 v -62.291 h 6.372 v 25.217 H 27.518 Z M 15.927,-5.84 h 12.652 c 8.14,0 13.804,-5.043 13.804,-12.653 0,-7.963 -5.664,-12.74 -14.069,-12.74 H 15.927 Z m 73.351,-57.512 c 14.688,0 26.013,10.263 26.013,26.013 V 0 h -6.371 v -37.339 c 0,-13.361 -8.937,-20.085 -19.642,-20.085 -10.618,0 -19.732,7.167 -19.732,20.085 V 0 h -6.37 v -37.339 c 0,-15.75 11.502,-26.013 26.102,-26.013 M 175.458,0 h -51.762 v -5.84 h 22.651 v -56.451 h 6.371 V -5.84 h 22.74 z m 52.646,0 V -49.55 L 188.641,0 h -3.627 v -62.291 h 6.282 v 49.108 l 39.286,-49.108 h 3.804 V 0 Z m 50.08,-63.352 c 18.404,0 31.943,13.979 31.943,32.207 0,18.315 -13.539,32.206 -31.943,32.206 -18.315,0 -31.941,-13.803 -31.941,-32.206 0,-18.316 13.891,-32.207 31.941,-32.207 m 0,5.928 c -14.599,0 -25.217,10.972 -25.217,26.279 0,15.306 10.884,26.279 25.217,26.279 14.511,0 25.218,-10.883 25.218,-26.279 0,-15.219 -10.707,-26.279 -25.218,-26.279 M 365.162,0 343.217,-52.115 321.275,0 h -6.814 l 26.544,-62.291 h 4.248 L 371.886,0 Z M 0,0 h -51.762 v -5.84 h 22.651 v -56.451 h 6.371 V -5.84 H 0 Z m 47.425,-62.291 h 7.698 l -20.881,26.279 c 8.849,1.947 14.599,8.317 14.599,17.519 C 48.841,-7.875 40.878,0 28.579,0 H 9.555 v -62.291 h 6.372 v 25.217 H 27.518 Z M 15.927,-5.84 h 12.652 c 8.14,0 13.804,-5.043 13.804,-12.653 0,-7.963 -5.664,-12.74 -14.069,-12.74 H 15.927 Z m 73.351,-57.512 c 14.688,0 26.013,10.263 26.013,26.013 V 0 h -6.371 v -37.339 c 0,-13.361 -8.937,-20.085 -19.642,-20.085 -10.618,0 -19.732,7.167 -19.732,20.085 V 0 h -6.37 v -37.339 c 0,-15.75 11.502,-26.013 26.102,-26.013 M 175.458,0 h -51.762 v -5.84 h 22.651 v -56.451 h 6.371 V -5.84 h 22.74 z m 52.646,0 V -49.55 L 188.641,0 h -3.627 v -62.291 h 6.282 v 49.108 l 39.286,-49.108 h 3.804 V 0 Z m 50.08,-63.352 c 18.404,0 31.943,13.979 31.943,32.207 0,18.315 -13.539,32.206 -31.943,32.206 -18.315,0 -31.941,-13.803 -31.941,-32.206 0,-18.316 13.891,-32.207 31.941,-32.207 m 0,5.928 c -14.599,0 -25.217,10.972 -25.217,26.279 0,15.306 10.884,26.279 25.217,26.279 14.511,0 25.218,-10.883 25.218,-26.279 0,-15.219 -10.707,-26.279 -25.218,-26.279 M 365.162,0 343.217,-52.115 321.275,0 h -6.814 l 26.544,-62.291 h 4.248 L 371.886,0 Z"
       style="fill:#ffffff;fill-opacity:1;fill-rule:nonzero;stroke:none"
       transform="matrix(1.3333333,0,0,-1.3333333,3067.0836,454.84896)"
       clip-path="url(#clipPath93)" />
  </g>
</svg>
